<svg width="184" height="87" viewBox="0 0 184 87" fill="none" xmlns="http://www.w3.org/2000/svg">
<g id="Percent">
<rect id="Frame" width="184" height="87" fill="#0C0D12"/>
<g id="Vector">
<g id="35">
<path d="M24.4805 22.3073C26.8357 21.2049 29.2911 20.378 31.8468 19.8268C34.4024 19.2756 36.6825 19 38.6869 19C42.9964 19 46.5543 20.0022 49.3605 22.0066C52.2168 24.0111 53.645 27.0177 53.645 31.0266C53.645 33.482 52.9685 35.7119 51.6155 37.7164C50.3126 39.6707 48.0576 41.2492 44.8505 42.4518V42.7525C48.709 43.5042 51.4401 44.9824 53.0436 47.1873C54.6973 49.3922 55.5241 51.9729 55.5241 54.9294C55.5241 59.69 53.8203 63.2979 50.4128 65.7534C47.0053 68.2589 42.796 69.5117 37.7849 69.5117C32.6736 69.5117 28.8151 68.3591 26.2093 66.054C23.6537 63.799 22.2506 60.8175 22 57.1093L28.6898 55.0046C28.9403 56.8587 29.7421 58.5374 31.0951 60.0407C32.4481 61.5942 34.653 62.3709 37.7097 62.3709C41.017 62.3709 43.2971 61.4939 44.5499 59.7401C45.8527 58.0363 46.5042 56.1321 46.5042 54.0274C46.5042 48.9663 42.345 46.2853 34.0266 45.9847V40.4224C38.5867 40.3221 41.4931 39.345 42.7459 37.4909C44.0487 35.5867 44.7002 33.8829 44.7002 32.3796C44.7002 28.2204 42.2698 26.1408 37.4091 26.1408C36.457 26.1408 35.3295 26.2661 34.0266 26.5166C32.7237 26.7171 31.6213 27.0428 30.7193 27.4938L29.5166 33.2816L23.0523 32.6051L24.4805 22.3073Z" fill="white"/>
<path d="M96.9125 53.8019C96.9125 59.3141 95.2338 63.2979 91.8764 65.7534C88.5189 68.2589 84.3096 69.5117 79.2484 69.5117C74.1872 69.5117 70.3287 68.3591 67.6728 66.054C65.0671 63.799 63.6389 60.8175 63.3884 57.1093L70.0782 55.0046C70.3287 56.9088 71.1555 58.6126 72.5586 60.1159C73.9617 61.6192 76.0915 62.3709 78.9478 62.3709C82.1047 62.3709 84.3848 61.5441 85.7879 59.8904C87.2411 58.2367 87.9677 56.2323 87.9677 53.8771C87.9677 50.1188 86.6398 47.7135 83.9839 46.6612C81.3781 45.5587 78.3715 45.0075 74.964 45.0075C73.8114 45.0075 72.6589 45.0576 71.5063 45.1578C70.4039 45.2079 69.3014 45.2831 68.199 45.3833L65.493 42.7525V19.7517H94.432L95.5595 32.2292L88.569 32.8306L87.3664 26.8924H73.16V38.2425C73.7112 38.1924 74.2374 38.1674 74.7385 38.1674C75.2897 38.1674 75.8158 38.1674 76.317 38.1674C79.8748 38.1674 83.2072 38.5933 86.3141 39.4452C89.471 40.247 92.0267 41.7754 93.981 44.0303C95.9353 46.2853 96.9125 49.5425 96.9125 53.8019Z" fill="white"/>
</g>
<path id="%" d="M119.162 46.9052C115.159 46.9052 112.03 45.8059 109.775 43.6073C107.577 41.4087 106.478 38.5054 106.478 34.8974C106.478 31.1767 107.633 28.1888 109.945 25.9338C112.312 23.6225 115.526 22.4668 119.585 22.4668C123.587 22.4668 126.66 23.5661 128.802 25.7647C131.001 27.9633 132.1 30.8666 132.1 34.4746C132.1 38.1389 130.972 41.1268 128.717 43.4382C126.462 45.7495 123.277 46.9052 119.162 46.9052ZM155.862 23.3124L138.357 45.214L121.699 67.3692H112.228L131.931 43.1845L146.391 23.3124H155.862ZM119.162 40.9859C122.883 40.9859 124.743 38.8436 124.743 34.5592C124.743 30.4438 122.967 28.3861 119.416 28.3861C117.837 28.3861 116.512 28.8935 115.441 29.9082C114.37 30.8666 113.834 32.5015 113.834 34.8128C113.834 38.9282 115.61 40.9859 119.162 40.9859ZM149.097 68.2148C145.094 68.2148 141.965 67.1155 139.71 64.9169C137.512 62.7183 136.412 59.815 136.412 56.207C136.412 52.4863 137.568 49.4702 139.88 47.1589C142.247 44.8475 145.489 43.6918 149.604 43.6918C153.607 43.6918 156.679 44.8193 158.821 47.0743C161.02 49.2729 162.119 52.1762 162.119 55.7842C162.119 59.4486 160.992 62.4364 158.737 64.7478C156.482 67.0591 153.268 68.2148 149.097 68.2148ZM149.097 62.2955C152.874 62.2955 154.762 60.1532 154.762 55.8688C154.762 51.697 152.987 49.6112 149.435 49.6112C147.8 49.6112 146.447 50.1186 145.376 51.1333C144.305 52.0917 143.769 53.7547 143.769 56.1224C143.769 60.2378 145.545 62.2955 149.097 62.2955Z" fill="white"/>
</g>
</g>
</svg>
